<svg xmlns="http://www.w3.org/2000/svg" width="980" height="560" viewBox="0 0 980 560">
<style>text{font-family:Arial,sans-serif;font-size:14px;fill:#1f2933}.axis{stroke:#1f2933;stroke-width:1.4}.grid{stroke:#d9dee7;stroke-width:1}.line{fill:none;stroke:#1f77b4;stroke-width:2.2}</style>
<rect x="0" y="0" width="980" height="560" fill="white"/>
<line class="axis" x1="88" y1="36" x2="88" y2="482"/>
<line class="axis" x1="88" y1="482" x2="952" y2="482"/>
<line class="grid" x1="88.00" y1="36" x2="88.00" y2="482"/>
<text x="88.00" y="506" text-anchor="middle">1</text>
<line class="grid" x1="218.69" y1="36" x2="218.69" y2="482"/>
<text x="218.69" y="506" text-anchor="middle">2,500</text>
<line class="grid" x1="349.43" y1="36" x2="349.43" y2="482"/>
<text x="349.43" y="506" text-anchor="middle">5,000</text>
<line class="grid" x1="480.18" y1="36" x2="480.18" y2="482"/>
<text x="480.18" y="506" text-anchor="middle">7,500</text>
<line class="grid" x1="610.92" y1="36" x2="610.92" y2="482"/>
<text x="610.92" y="506" text-anchor="middle">10,000</text>
<line class="grid" x1="741.66" y1="36" x2="741.66" y2="482"/>
<text x="741.66" y="506" text-anchor="middle">12,500</text>
<line class="grid" x1="872.40" y1="36" x2="872.40" y2="482"/>
<text x="872.40" y="506" text-anchor="middle">15,000</text>
<line class="grid" x1="952.00" y1="36" x2="952.00" y2="482"/>
<text x="952.00" y="506" text-anchor="middle">16,522</text>
<line class="grid" x1="88" y1="482.00" x2="952" y2="482.00"/>
<text x="76" y="487.00" text-anchor="end">1</text>
<line class="grid" x1="88" y1="365.23" x2="952" y2="365.23"/>
<text x="76" y="370.23" text-anchor="end">10</text>
<line class="grid" x1="88" y1="248.45" x2="952" y2="248.45"/>
<text x="76" y="253.45" text-anchor="end">100</text>
<line class="grid" x1="88" y1="131.68" x2="952" y2="131.68"/>
<text x="76" y="136.68" text-anchor="end">1,000</text>
<polyline class="line" points="88.00,36.00 88.47,195.52 88.94,218.36 89.41,238.79 89.88,246.95 90.35,254.36 90.82,258.52 91.29,264.41 91.77,271.09 92.24,274.36 92.71,281.62 93.18,286.74 93.65,290.09 94.12,294.92 94.59,298.87 95.06,300.26 95.53,304.68 96.00,307.85 96.47,311.23 96.94,314.85 97.41,316.77 97.88,318.76 98.35,322.99 98.83,325.24 99.30,325.24 99.77,327.60 100.24,330.07 100.71,330.07 101.18,332.67 101.65,332.67 102.12,335.42 102.59,335.42 103.06,338.32 103.53,338.32 104.00,338.32 104.47,341.39 104.94,341.39 105.41,341.39 105.89,344.66 106.36,348.16 106.83,348.16 107.30,348.16 107.77,351.92 108.24,351.92 108.71,351.92 109.18,355.98 109.65,355.98 110.12,355.98 110.59,355.98 111.06,355.98 111.53,360.39 112.00,360.39 112.48,360.39 112.95,360.39 113.42,360.39 113.89,360.39 114.36,365.23 114.83,365.23 115.30,365.23 115.77,365.23 116.24,365.23 116.71,365.23 117.18,365.23 117.65,365.23 118.12,370.57 118.59,370.57 119.06,370.57 119.54,370.57 120.01,370.57 120.48,370.57 120.95,370.57 121.42,370.57 121.89,370.57 122.36,370.57 122.83,376.54 123.30,376.54 123.77,376.54 124.24,376.54 124.71,376.54 125.18,376.54 125.65,376.54 126.12,376.54 126.60,376.54 127.07,376.54 127.54,383.31 128.01,383.31 128.48,383.31 128.95,383.31 129.42,383.31 129.89,383.31 130.36,383.31 130.83,383.31 131.30,383.31 131.77,383.31 132.24,383.31 132.71,383.31 133.18,383.31 133.66,383.31 134.13,383.31 134.60,391.13 135.07,391.13 135.54,391.13 136.01,391.13 136.48,391.13 136.95,391.13 137.42,391.13 137.89,391.13 138.36,391.13 138.83,391.13 139.30,391.13 139.77,391.13 140.24,391.13 140.72,391.13 141.19,391.13 141.66,391.13 142.13,391.13 142.60,391.13 143.07,391.13 143.54,391.13 144.01,400.38 144.48,400.38 144.95,400.38 145.42,400.38 145.89,400.38 146.36,400.38 146.83,400.38 147.30,400.38 147.78,400.38 148.25,400.38 148.72,400.38 149.19,400.38 149.66,400.38 150.13,400.38 150.60,400.38 151.07,400.38 151.54,400.38 152.01,400.38 152.48,400.38 152.95,400.38 153.42,400.38 153.89,400.38 154.36,400.38 154.84,400.38 155.31,400.38 155.78,400.38 156.25,400.38 156.72,400.38 157.19,400.38 157.66,400.38 158.13,400.38 158.60,411.70 159.07,411.70 159.54,411.70 160.01,411.70 160.48,411.70 160.95,411.70 161.43,411.70 161.90,411.70 162.37,411.70 162.84,411.70 163.31,411.70 163.78,411.70 164.25,411.70 164.72,411.70 165.19,411.70 165.66,411.70 166.13,411.70 166.60,411.70 167.07,411.70 167.54,411.70 168.01,411.70 168.49,411.70 168.96,411.70 169.43,411.70 169.90,411.70 170.37,411.70 170.84,411.70 171.31,411.70 171.78,411.70 172.25,411.70 172.72,411.70 173.19,411.70 173.66,411.70 174.13,411.70 174.60,411.70 175.07,411.70 175.55,411.70 176.02,411.70 176.49,411.70 176.96,411.70 177.43,411.70 177.90,411.70 178.37,411.70 178.84,411.70 179.31,411.70 179.78,411.70 180.25,411.70 180.72,411.70 181.19,411.70 181.66,411.70 182.13,411.70 182.61,411.70 183.08,411.70 183.55,411.70 184.02,411.70 184.49,411.70 184.96,426.28 185.43,426.28 185.90,426.28 186.37,426.28 186.84,426.28 187.31,426.28 187.78,426.28 188.25,426.28 188.72,426.28 189.19,426.28 189.67,426.28 190.14,426.28 190.61,426.28 191.08,426.28 191.55,426.28 192.02,426.28 192.49,426.28 192.96,426.28 193.43,426.28 193.90,426.28 194.37,426.28 194.84,426.28 195.31,426.28 195.78,426.28 196.25,426.28 196.73,426.28 197.20,426.28 197.67,426.28 198.14,426.28 198.61,426.28 199.08,426.28 199.55,426.28 200.02,426.28 200.49,426.28 200.96,426.28 201.43,426.28 201.90,426.28 202.37,426.28 202.84,426.28 203.32,426.28 203.79,426.28 204.26,426.28 204.73,426.28 205.20,426.28 205.67,426.28 206.14,426.28 206.61,426.28 207.08,426.28 207.55,426.28 208.02,426.28 208.49,426.28 208.96,426.28 209.43,426.28 209.90,426.28 210.38,426.28 210.85,426.28 211.32,426.28 211.79,426.28 212.26,426.28 212.73,426.28 213.20,426.28 213.67,426.28 214.14,426.28 214.61,426.28 215.08,426.28 215.55,426.28 216.02,426.28 216.49,426.28 216.96,426.28 217.44,426.28 217.91,426.28 218.38,426.28 218.85,426.28 219.32,426.28 219.79,426.28 220.26,426.28 220.73,426.28 221.20,426.28 221.67,426.28 222.14,426.28 222.61,426.28 223.08,426.28 223.55,426.28 224.02,426.28 224.50,426.28 224.97,426.28 225.44,426.28 225.91,426.28 226.38,426.28 226.85,426.28 227.32,426.28 227.79,426.28 228.26,426.28 228.73,426.28 229.20,426.28 229.67,426.28 230.14,426.28 230.61,426.28 231.08,426.28 231.56,446.85 232.03,446.85 232.50,446.85 232.97,446.85 233.44,446.85 233.91,446.85 234.38,446.85 234.85,446.85 235.32,446.85 235.79,446.85 236.26,446.85 236.73,446.85 237.20,446.85 237.67,446.85 238.14,446.85 238.62,446.85 239.09,446.85 239.56,446.85 240.03,446.85 240.50,446.85 240.97,446.85 241.44,446.85 241.91,446.85 242.38,446.85 242.85,446.85 243.32,446.85 243.79,446.85 244.26,446.85 244.73,446.85 245.21,446.85 245.68,446.85 246.15,446.85 246.62,446.85 247.09,446.85 247.56,446.85 248.03,446.85 248.50,446.85 248.97,446.85 249.44,446.85 249.91,446.85 250.38,446.85 250.85,446.85 251.32,446.85 251.79,446.85 252.27,446.85 252.74,446.85 253.21,446.85 253.68,446.85 254.15,446.85 254.62,446.85 255.09,446.85 255.56,446.85 256.03,446.85 256.50,446.85 256.97,446.85 257.44,446.85 257.91,446.85 258.38,446.85 258.85,446.85 259.33,446.85 259.80,446.85 260.27,446.85 260.74,446.85 261.21,446.85 261.68,446.85 262.15,446.85 262.62,446.85 263.09,446.85 263.56,446.85 264.03,446.85 264.50,446.85 264.97,446.85 265.44,446.85 265.91,446.85 266.39,446.85 266.86,446.85 267.33,446.85 267.80,446.85 268.27,446.85 268.74,446.85 269.21,446.85 269.68,446.85 270.15,446.85 270.62,446.85 271.09,446.85 271.56,446.85 272.03,446.85 272.50,446.85 272.97,446.85 273.45,446.85 273.92,446.85 274.39,446.85 274.86,446.85 275.33,446.85 275.80,446.85 276.27,446.85 276.74,446.85 277.21,446.85 277.68,446.85 278.15,446.85 278.62,446.85 279.09,446.85 279.56,446.85 280.03,446.85 280.51,446.85 280.98,446.85 281.45,446.85 281.92,446.85 282.39,446.85 282.86,446.85 283.33,446.85 283.80,446.85 284.27,446.85 284.74,446.85 285.21,446.85 285.68,446.85 286.15,446.85 286.62,446.85 287.09,446.85 287.57,446.85 288.04,446.85 288.51,446.85 288.98,446.85 289.45,446.85 289.92,446.85 290.39,446.85 290.86,446.85 291.33,446.85 291.80,446.85 292.27,446.85 292.74,446.85 293.21,446.85 293.68,446.85 294.16,446.85 294.63,446.85 295.10,446.85 295.57,446.85 296.04,446.85 296.51,446.85 296.98,446.85 297.45,446.85 297.92,446.85 298.39,446.85 298.86,446.85 299.33,446.85 299.80,446.85 300.27,446.85 300.74,446.85 301.22,446.85 301.69,446.85 302.16,446.85 302.63,446.85 303.10,446.85 303.57,446.85 304.04,446.85 304.51,446.85 304.98,446.85 305.45,446.85 305.92,446.85 306.39,446.85 306.86,446.85 307.33,446.85 307.80,446.85 308.28,446.85 308.75,446.85 309.22,446.85 309.69,446.85 310.16,446.85 310.63,446.85 311.10,446.85 311.57,446.85 312.04,446.85 312.51,446.85 312.98,446.85 313.45,446.85 313.92,446.85 314.39,446.85 314.86,446.85 315.34,446.85 315.81,446.85 316.28,446.85 316.75,446.85 317.22,446.85 317.69,446.85 318.16,446.85 318.63,446.85 319.10,446.85 319.57,446.85 320.04,446.85 320.51,446.85 320.98,446.85 321.45,446.85 321.92,446.85 322.40,446.85 322.87,446.85 323.34,446.85 323.81,446.85 324.28,446.85 324.75,446.85 325.22,446.85 325.69,446.85 326.16,446.85 326.63,446.85 327.10,446.85 327.57,446.85 328.04,446.85 328.51,446.85 328.98,446.85 329.46,446.85 329.93,446.85 330.40,446.85 330.87,446.85 331.34,446.85 331.81,446.85 332.28,446.85 332.75,446.85 333.22,446.85 333.69,446.85 334.16,446.85 334.63,446.85 335.10,446.85 335.57,446.85 336.05,446.85 336.52,446.85 336.99,446.85 337.46,446.85 337.93,446.85 338.40,446.85 338.87,446.85 339.34,446.85 339.81,446.85 340.28,446.85 340.75,446.85 341.22,446.85 341.69,446.85 342.16,446.85 342.63,446.85 343.11,446.85 343.58,446.85 344.05,446.85 344.52,446.85 344.99,446.85 345.46,446.85 345.93,446.85 346.40,446.85 346.87,446.85 347.34,446.85 347.81,446.85 348.28,446.85 348.75,446.85 349.22,446.85 349.69,446.85 350.17,446.85 350.64,446.85 351.11,446.85 351.58,446.85 352.05,446.85 352.52,446.85 352.99,446.85 353.46,446.85 353.93,446.85 354.40,446.85 354.87,446.85 355.34,446.85 355.81,446.85 356.28,446.85 356.75,446.85 357.23,446.85 357.70,446.85 358.17,446.85 358.64,446.85 359.11,446.85 359.58,446.85 360.05,446.85 360.52,446.85 360.99,446.85 361.46,446.85 361.93,446.85 362.40,446.85 362.87,446.85 363.34,446.85 363.81,482.00 364.29,482.00 364.76,482.00 365.23,482.00 365.70,482.00 366.17,482.00 366.64,482.00 367.11,482.00 367.58,482.00 368.05,482.00 368.52,482.00 368.99,482.00 369.46,482.00 369.93,482.00 370.40,482.00 370.87,482.00 371.35,482.00 371.82,482.00 372.29,482.00 372.76,482.00 373.23,482.00 373.70,482.00 374.17,482.00 374.64,482.00 375.11,482.00 375.58,482.00 376.05,482.00 376.52,482.00 376.99,482.00 377.46,482.00 377.93,482.00 378.41,482.00 378.88,482.00 379.35,482.00 379.82,482.00 380.29,482.00 380.76,482.00 381.23,482.00 381.70,482.00 382.17,482.00 382.64,482.00 383.11,482.00 383.58,482.00 384.05,482.00 384.52,482.00 385.00,482.00 385.47,482.00 385.94,482.00 386.41,482.00 386.88,482.00 387.35,482.00 387.82,482.00 388.29,482.00 388.76,482.00 389.23,482.00 389.70,482.00 390.17,482.00 390.64,482.00 391.11,482.00 391.58,482.00 392.06,482.00 392.53,482.00 393.00,482.00 393.47,482.00 393.94,482.00 394.41,482.00 394.88,482.00 395.35,482.00 395.82,482.00 396.29,482.00 396.76,482.00 397.23,482.00 397.70,482.00 398.17,482.00 398.64,482.00 399.12,482.00 399.59,482.00 400.06,482.00 400.53,482.00 401.00,482.00 401.47,482.00 401.94,482.00 402.41,482.00 402.88,482.00 403.35,482.00 403.82,482.00 404.29,482.00 404.76,482.00 405.23,482.00 405.70,482.00 406.18,482.00 406.65,482.00 407.12,482.00 407.59,482.00 408.06,482.00 408.53,482.00 409.00,482.00 409.47,482.00 409.94,482.00 410.41,482.00 410.88,482.00 411.35,482.00 411.82,482.00 412.29,482.00 412.76,482.00 413.24,482.00 413.71,482.00 414.18,482.00 414.65,482.00 415.12,482.00 415.59,482.00 416.06,482.00 416.53,482.00 417.00,482.00 417.47,482.00 417.94,482.00 418.41,482.00 418.88,482.00 419.35,482.00 419.82,482.00 420.30,482.00 420.77,482.00 421.24,482.00 421.71,482.00 422.18,482.00 422.65,482.00 423.12,482.00 423.59,482.00 424.06,482.00 424.53,482.00 425.00,482.00 425.47,482.00 425.94,482.00 426.41,482.00 426.89,482.00 427.36,482.00 427.83,482.00 428.30,482.00 428.77,482.00 429.24,482.00 429.71,482.00 430.18,482.00 430.65,482.00 431.12,482.00 431.59,482.00 432.06,482.00 432.53,482.00 433.00,482.00 433.47,482.00 433.95,482.00 434.42,482.00 434.89,482.00 435.36,482.00 435.83,482.00 436.30,482.00 436.77,482.00 437.24,482.00 437.71,482.00 438.18,482.00 438.65,482.00 439.12,482.00 439.59,482.00 440.06,482.00 440.53,482.00 441.01,482.00 441.48,482.00 441.95,482.00 442.42,482.00 442.89,482.00 443.36,482.00 443.83,482.00 444.30,482.00 444.77,482.00 445.24,482.00 445.71,482.00 446.18,482.00 446.65,482.00 447.12,482.00 447.59,482.00 448.07,482.00 448.54,482.00 449.01,482.00 449.48,482.00 449.95,482.00 450.42,482.00 450.89,482.00 451.36,482.00 451.83,482.00 452.30,482.00 452.77,482.00 453.24,482.00 453.71,482.00 454.18,482.00 454.65,482.00 455.13,482.00 455.60,482.00 456.07,482.00 456.54,482.00 457.01,482.00 457.48,482.00 457.95,482.00 458.42,482.00 458.89,482.00 459.36,482.00 459.83,482.00 460.30,482.00 460.77,482.00 461.24,482.00 461.71,482.00 462.19,482.00 462.66,482.00 463.13,482.00 463.60,482.00 464.07,482.00 464.54,482.00 465.01,482.00 465.48,482.00 465.95,482.00 466.42,482.00 466.89,482.00 467.36,482.00 467.83,482.00 468.30,482.00 468.78,482.00 469.25,482.00 469.72,482.00 470.19,482.00 470.66,482.00 471.13,482.00 471.60,482.00 472.07,482.00 472.54,482.00 473.01,482.00 473.48,482.00 473.95,482.00 474.42,482.00 474.89,482.00 475.36,482.00 475.84,482.00 476.31,482.00 476.78,482.00 477.25,482.00 477.72,482.00 478.19,482.00 478.66,482.00 479.13,482.00 479.60,482.00 480.07,482.00 480.54,482.00 481.01,482.00 481.48,482.00 481.95,482.00 482.42,482.00 482.90,482.00 483.37,482.00 483.84,482.00 484.31,482.00 484.78,482.00 485.25,482.00 485.72,482.00 486.19,482.00 486.66,482.00 487.13,482.00 487.60,482.00 488.07,482.00 488.54,482.00 489.01,482.00 489.48,482.00 489.96,482.00 490.43,482.00 490.90,482.00 491.37,482.00 491.84,482.00 492.31,482.00 492.78,482.00 493.25,482.00 493.72,482.00 494.19,482.00 494.66,482.00 495.13,482.00 495.60,482.00 496.07,482.00 496.54,482.00 497.02,482.00 497.49,482.00 497.96,482.00 498.43,482.00 498.90,482.00 499.37,482.00 499.84,482.00 500.31,482.00 500.78,482.00 501.25,482.00 501.72,482.00 502.19,482.00 502.66,482.00 503.13,482.00 503.60,482.00 504.08,482.00 504.55,482.00 505.02,482.00 505.49,482.00 505.96,482.00 506.43,482.00 506.90,482.00 507.37,482.00 507.84,482.00 508.31,482.00 508.78,482.00 509.25,482.00 509.72,482.00 510.19,482.00 510.66,482.00 511.14,482.00 511.61,482.00 512.08,482.00 512.55,482.00 513.02,482.00 513.49,482.00 513.96,482.00 514.43,482.00 514.90,482.00 515.37,482.00 515.84,482.00 516.31,482.00 516.78,482.00 517.25,482.00 517.73,482.00 518.20,482.00 518.67,482.00 519.14,482.00 519.61,482.00 520.08,482.00 520.55,482.00 521.02,482.00 521.49,482.00 521.96,482.00 522.43,482.00 522.90,482.00 523.37,482.00 523.84,482.00 524.31,482.00 524.79,482.00 525.26,482.00 525.73,482.00 526.20,482.00 526.67,482.00 527.14,482.00 527.61,482.00 528.08,482.00 528.55,482.00 529.02,482.00 529.49,482.00 529.96,482.00 530.43,482.00 530.90,482.00 531.37,482.00 531.85,482.00 532.32,482.00 532.79,482.00 533.26,482.00 533.73,482.00 534.20,482.00 534.67,482.00 535.14,482.00 535.61,482.00 536.08,482.00 536.55,482.00 537.02,482.00 537.49,482.00 537.96,482.00 538.43,482.00 538.91,482.00 539.38,482.00 539.85,482.00 540.32,482.00 540.79,482.00 541.26,482.00 541.73,482.00 542.20,482.00 542.67,482.00 543.14,482.00 543.61,482.00 544.08,482.00 544.55,482.00 545.02,482.00 545.49,482.00 545.97,482.00 546.44,482.00 546.91,482.00 547.38,482.00 547.85,482.00 548.32,482.00 548.79,482.00 549.26,482.00 549.73,482.00 550.20,482.00 550.67,482.00 551.14,482.00 551.61,482.00 552.08,482.00 552.55,482.00 553.03,482.00 553.50,482.00 553.97,482.00 554.44,482.00 554.91,482.00 555.38,482.00 555.85,482.00 556.32,482.00 556.79,482.00 557.26,482.00 557.73,482.00 558.20,482.00 558.67,482.00 559.14,482.00 559.62,482.00 560.09,482.00 560.56,482.00 561.03,482.00 561.50,482.00 561.97,482.00 562.44,482.00 562.91,482.00 563.38,482.00 563.85,482.00 564.32,482.00 564.79,482.00 565.26,482.00 565.73,482.00 566.20,482.00 566.68,482.00 567.15,482.00 567.62,482.00 568.09,482.00 568.56,482.00 569.03,482.00 569.50,482.00 569.97,482.00 570.44,482.00 570.91,482.00 571.38,482.00 571.85,482.00 572.32,482.00 572.79,482.00 573.26,482.00 573.74,482.00 574.21,482.00 574.68,482.00 575.15,482.00 575.62,482.00 576.09,482.00 576.56,482.00 577.03,482.00 577.50,482.00 577.97,482.00 578.44,482.00 578.91,482.00 579.38,482.00 579.85,482.00 580.32,482.00 580.80,482.00 581.27,482.00 581.74,482.00 582.21,482.00 582.68,482.00 583.15,482.00 583.62,482.00 584.09,482.00 584.56,482.00 585.03,482.00 585.50,482.00 585.97,482.00 586.44,482.00 586.91,482.00 587.38,482.00 587.86,482.00 588.33,482.00 588.80,482.00 589.27,482.00 589.74,482.00 590.21,482.00 590.68,482.00 591.15,482.00 591.62,482.00 592.09,482.00 592.56,482.00 593.03,482.00 593.50,482.00 593.97,482.00 594.44,482.00 594.92,482.00 595.39,482.00 595.86,482.00 596.33,482.00 596.80,482.00 597.27,482.00 597.74,482.00 598.21,482.00 598.68,482.00 599.15,482.00 599.62,482.00 600.09,482.00 600.56,482.00 601.03,482.00 601.50,482.00 601.98,482.00 602.45,482.00 602.92,482.00 603.39,482.00 603.86,482.00 604.33,482.00 604.80,482.00 605.27,482.00 605.74,482.00 606.21,482.00 606.68,482.00 607.15,482.00 607.62,482.00 608.09,482.00 608.57,482.00 609.04,482.00 609.51,482.00 609.98,482.00 610.45,482.00 610.92,482.00 611.39,482.00 611.86,482.00 612.33,482.00 612.80,482.00 613.27,482.00 613.74,482.00 614.21,482.00 614.68,482.00 615.15,482.00 615.63,482.00 616.10,482.00 616.57,482.00 617.04,482.00 617.51,482.00 617.98,482.00 618.45,482.00 618.92,482.00 619.39,482.00 619.86,482.00 620.33,482.00 620.80,482.00 621.27,482.00 621.74,482.00 622.21,482.00 622.69,482.00 623.16,482.00 623.63,482.00 624.10,482.00 624.57,482.00 625.04,482.00 625.51,482.00 625.98,482.00 626.45,482.00 626.92,482.00 627.39,482.00 627.86,482.00 628.33,482.00 628.80,482.00 629.27,482.00 629.75,482.00 630.22,482.00 630.69,482.00 631.16,482.00 631.63,482.00 632.10,482.00 632.57,482.00 633.04,482.00 633.51,482.00 633.98,482.00 634.45,482.00 634.92,482.00 635.39,482.00 635.86,482.00 636.33,482.00 636.81,482.00 637.28,482.00 637.75,482.00 638.22,482.00 638.69,482.00 639.16,482.00 639.63,482.00 640.10,482.00 640.57,482.00 641.04,482.00 641.51,482.00 641.98,482.00 642.45,482.00 642.92,482.00 643.39,482.00 643.87,482.00 644.34,482.00 644.81,482.00 645.28,482.00 645.75,482.00 646.22,482.00 646.69,482.00 647.16,482.00 647.63,482.00 648.10,482.00 648.57,482.00 649.04,482.00 649.51,482.00 649.98,482.00 650.46,482.00 650.93,482.00 651.40,482.00 651.87,482.00 652.34,482.00 652.81,482.00 653.28,482.00 653.75,482.00 654.22,482.00 654.69,482.00 655.16,482.00 655.63,482.00 656.10,482.00 656.57,482.00 657.04,482.00 657.52,482.00 657.99,482.00 658.46,482.00 658.93,482.00 659.40,482.00 659.87,482.00 660.34,482.00 660.81,482.00 661.28,482.00 661.75,482.00 662.22,482.00 662.69,482.00 663.16,482.00 663.63,482.00 664.10,482.00 664.58,482.00 665.05,482.00 665.52,482.00 665.99,482.00 666.46,482.00 666.93,482.00 667.40,482.00 667.87,482.00 668.34,482.00 668.81,482.00 669.28,482.00 669.75,482.00 670.22,482.00 670.69,482.00 671.16,482.00 671.64,482.00 672.11,482.00 672.58,482.00 673.05,482.00 673.52,482.00 673.99,482.00 674.46,482.00 674.93,482.00 675.40,482.00 675.87,482.00 676.34,482.00 676.81,482.00 677.28,482.00 677.75,482.00 678.22,482.00 678.70,482.00 679.17,482.00 679.64,482.00 680.11,482.00 680.58,482.00 681.05,482.00 681.52,482.00 681.99,482.00 682.46,482.00 682.93,482.00 683.40,482.00 683.87,482.00 684.34,482.00 684.81,482.00 685.28,482.00 685.76,482.00 686.23,482.00 686.70,482.00 687.17,482.00 687.64,482.00 688.11,482.00 688.58,482.00 689.05,482.00 689.52,482.00 689.99,482.00 690.46,482.00 690.93,482.00 691.40,482.00 691.87,482.00 692.35,482.00 692.82,482.00 693.29,482.00 693.76,482.00 694.23,482.00 694.70,482.00 695.17,482.00 695.64,482.00 696.11,482.00 696.58,482.00 697.05,482.00 697.52,482.00 697.99,482.00 698.46,482.00 698.93,482.00 699.41,482.00 699.88,482.00 700.35,482.00 700.82,482.00 701.29,482.00 701.76,482.00 702.23,482.00 702.70,482.00 703.17,482.00 703.64,482.00 704.11,482.00 704.58,482.00 705.05,482.00 705.52,482.00 705.99,482.00 706.47,482.00 706.94,482.00 707.41,482.00 707.88,482.00 708.35,482.00 708.82,482.00 709.29,482.00 709.76,482.00 710.23,482.00 710.70,482.00 711.17,482.00 711.64,482.00 712.11,482.00 712.58,482.00 713.05,482.00 713.53,482.00 714.00,482.00 714.47,482.00 714.94,482.00 715.41,482.00 715.88,482.00 716.35,482.00 716.82,482.00 717.29,482.00 717.76,482.00 718.23,482.00 718.70,482.00 719.17,482.00 719.64,482.00 720.11,482.00 720.59,482.00 721.06,482.00 721.53,482.00 722.00,482.00 722.47,482.00 722.94,482.00 723.41,482.00 723.88,482.00 724.35,482.00 724.82,482.00 725.29,482.00 725.76,482.00 726.23,482.00 726.70,482.00 727.17,482.00 727.65,482.00 728.12,482.00 728.59,482.00 729.06,482.00 729.53,482.00 730.00,482.00 730.47,482.00 730.94,482.00 731.41,482.00 731.88,482.00 732.35,482.00 732.82,482.00 733.29,482.00 733.76,482.00 734.23,482.00 734.71,482.00 735.18,482.00 735.65,482.00 736.12,482.00 736.59,482.00 737.06,482.00 737.53,482.00 738.00,482.00 738.47,482.00 738.94,482.00 739.41,482.00 739.88,482.00 740.35,482.00 740.82,482.00 741.30,482.00 741.77,482.00 742.24,482.00 742.71,482.00 743.18,482.00 743.65,482.00 744.12,482.00 744.59,482.00 745.06,482.00 745.53,482.00 746.00,482.00 746.47,482.00 746.94,482.00 747.41,482.00 747.88,482.00 748.36,482.00 748.83,482.00 749.30,482.00 749.77,482.00 750.24,482.00 750.71,482.00 751.18,482.00 751.65,482.00 752.12,482.00 752.59,482.00 753.06,482.00 753.53,482.00 754.00,482.00 754.47,482.00 754.94,482.00 755.42,482.00 755.89,482.00 756.36,482.00 756.83,482.00 757.30,482.00 757.77,482.00 758.24,482.00 758.71,482.00 759.18,482.00 759.65,482.00 760.12,482.00 760.59,482.00 761.06,482.00 761.53,482.00 762.00,482.00 762.48,482.00 762.95,482.00 763.42,482.00 763.89,482.00 764.36,482.00 764.83,482.00 765.30,482.00 765.77,482.00 766.24,482.00 766.71,482.00 767.18,482.00 767.65,482.00 768.12,482.00 768.59,482.00 769.06,482.00 769.54,482.00 770.01,482.00 770.48,482.00 770.95,482.00 771.42,482.00 771.89,482.00 772.36,482.00 772.83,482.00 773.30,482.00 773.77,482.00 774.24,482.00 774.71,482.00 775.18,482.00 775.65,482.00 776.12,482.00 776.60,482.00 777.07,482.00 777.54,482.00 778.01,482.00 778.48,482.00 778.95,482.00 779.42,482.00 779.89,482.00 780.36,482.00 780.83,482.00 781.30,482.00 781.77,482.00 782.24,482.00 782.71,482.00 783.19,482.00 783.66,482.00 784.13,482.00 784.60,482.00 785.07,482.00 785.54,482.00 786.01,482.00 786.48,482.00 786.95,482.00 787.42,482.00 787.89,482.00 788.36,482.00 788.83,482.00 789.30,482.00 789.77,482.00 790.25,482.00 790.72,482.00 791.19,482.00 791.66,482.00 792.13,482.00 792.60,482.00 793.07,482.00 793.54,482.00 794.01,482.00 794.48,482.00 794.95,482.00 795.42,482.00 795.89,482.00 796.36,482.00 796.83,482.00 797.31,482.00 797.78,482.00 798.25,482.00 798.72,482.00 799.19,482.00 799.66,482.00 800.13,482.00 800.60,482.00 801.07,482.00 801.54,482.00 802.01,482.00 802.48,482.00 802.95,482.00 803.42,482.00 803.89,482.00 804.37,482.00 804.84,482.00 805.31,482.00 805.78,482.00 806.25,482.00 806.72,482.00 807.19,482.00 807.66,482.00 808.13,482.00 808.60,482.00 809.07,482.00 809.54,482.00 810.01,482.00 810.48,482.00 810.95,482.00 811.43,482.00 811.90,482.00 812.37,482.00 812.84,482.00 813.31,482.00 813.78,482.00 814.25,482.00 814.72,482.00 815.19,482.00 815.66,482.00 816.13,482.00 816.60,482.00 817.07,482.00 817.54,482.00 818.01,482.00 818.49,482.00 818.96,482.00 819.43,482.00 819.90,482.00 820.37,482.00 820.84,482.00 821.31,482.00 821.78,482.00 822.25,482.00 822.72,482.00 823.19,482.00 823.66,482.00 824.13,482.00 824.60,482.00 825.07,482.00 825.55,482.00 826.02,482.00 826.49,482.00 826.96,482.00 827.43,482.00 827.90,482.00 828.37,482.00 828.84,482.00 829.31,482.00 829.78,482.00 830.25,482.00 830.72,482.00 831.19,482.00 831.66,482.00 832.14,482.00 832.61,482.00 833.08,482.00 833.55,482.00 834.02,482.00 834.49,482.00 834.96,482.00 835.43,482.00 835.90,482.00 836.37,482.00 836.84,482.00 837.31,482.00 837.78,482.00 838.25,482.00 838.72,482.00 839.20,482.00 839.67,482.00 840.14,482.00 840.61,482.00 841.08,482.00 841.55,482.00 842.02,482.00 842.49,482.00 842.96,482.00 843.43,482.00 843.90,482.00 844.37,482.00 844.84,482.00 845.31,482.00 845.78,482.00 846.26,482.00 846.73,482.00 847.20,482.00 847.67,482.00 848.14,482.00 848.61,482.00 849.08,482.00 849.55,482.00 850.02,482.00 850.49,482.00 850.96,482.00 851.43,482.00 851.90,482.00 852.37,482.00 852.84,482.00 853.32,482.00 853.79,482.00 854.26,482.00 854.73,482.00 855.20,482.00 855.67,482.00 856.14,482.00 856.61,482.00 857.08,482.00 857.55,482.00 858.02,482.00 858.49,482.00 858.96,482.00 859.43,482.00 859.90,482.00 860.38,482.00 860.85,482.00 861.32,482.00 861.79,482.00 862.26,482.00 862.73,482.00 863.20,482.00 863.67,482.00 864.14,482.00 864.61,482.00 865.08,482.00 865.55,482.00 866.02,482.00 866.49,482.00 866.96,482.00 867.44,482.00 867.91,482.00 868.38,482.00 868.85,482.00 869.32,482.00 869.79,482.00 870.26,482.00 870.73,482.00 871.20,482.00 871.67,482.00 872.14,482.00 872.61,482.00 873.08,482.00 873.55,482.00 874.03,482.00 874.50,482.00 874.97,482.00 875.44,482.00 875.91,482.00 876.38,482.00 876.85,482.00 877.32,482.00 877.79,482.00 878.26,482.00 878.73,482.00 879.20,482.00 879.67,482.00 880.14,482.00 880.61,482.00 881.09,482.00 881.56,482.00 882.03,482.00 882.50,482.00 882.97,482.00 883.44,482.00 883.91,482.00 884.38,482.00 884.85,482.00 885.32,482.00 885.79,482.00 886.26,482.00 886.73,482.00 887.20,482.00 887.67,482.00 888.15,482.00 888.62,482.00 889.09,482.00 889.56,482.00 890.03,482.00 890.50,482.00 890.97,482.00 891.44,482.00 891.91,482.00 892.38,482.00 892.85,482.00 893.32,482.00 893.79,482.00 894.26,482.00 894.73,482.00 895.21,482.00 895.68,482.00 896.15,482.00 896.62,482.00 897.09,482.00 897.56,482.00 898.03,482.00 898.50,482.00 898.97,482.00 899.44,482.00 899.91,482.00 900.38,482.00 900.85,482.00 901.32,482.00 901.79,482.00 902.27,482.00 902.74,482.00 903.21,482.00 903.68,482.00 904.15,482.00 904.62,482.00 905.09,482.00 905.56,482.00 906.03,482.00 906.50,482.00 906.97,482.00 907.44,482.00 907.91,482.00 908.38,482.00 908.85,482.00 909.33,482.00 909.80,482.00 910.27,482.00 910.74,482.00 911.21,482.00 911.68,482.00 912.15,482.00 912.62,482.00 913.09,482.00 913.56,482.00 914.03,482.00 914.50,482.00 914.97,482.00 915.44,482.00 915.92,482.00 916.39,482.00 916.86,482.00 917.33,482.00 917.80,482.00 918.27,482.00 918.74,482.00 919.21,482.00 919.68,482.00 920.15,482.00 920.62,482.00 921.09,482.00 921.56,482.00 922.03,482.00 922.50,482.00 922.98,482.00 923.45,482.00 923.92,482.00 924.39,482.00 924.86,482.00 925.33,482.00 925.80,482.00 926.27,482.00 926.74,482.00 927.21,482.00 927.68,482.00 928.15,482.00 928.62,482.00 929.09,482.00 929.56,482.00 930.04,482.00 930.51,482.00 930.98,482.00 931.45,482.00 931.92,482.00 932.39,482.00 932.86,482.00 933.33,482.00 933.80,482.00 934.27,482.00 934.74,482.00 935.21,482.00 935.68,482.00 936.15,482.00 936.62,482.00 937.10,482.00 937.57,482.00 938.04,482.00 938.51,482.00 938.98,482.00 939.45,482.00 939.92,482.00 940.39,482.00 940.86,482.00 941.33,482.00 941.80,482.00 942.27,482.00 942.74,482.00 943.21,482.00 943.68,482.00 944.16,482.00 944.63,482.00 945.10,482.00 945.57,482.00 946.04,482.00 946.51,482.00 946.98,482.00 947.45,482.00 947.92,482.00 948.39,482.00 948.86,482.00 949.33,482.00 949.80,482.00 950.27,482.00 950.74,482.00 951.22,482.00 951.69,482.00 952.00,482.00"/>
<text x="520.00" y="536" text-anchor="middle">Defensive pattern index (sorted by occurrence)</text>
<text transform="translate(26 259.00) rotate(-90)" text-anchor="middle">Occurrences (log scale)</text>
<text x="88" y="22">Figure 8: Long-tail occurrences of inferred defensive patterns</text>
<text x="952" y="22" text-anchor="end">n=16,522, max=6,597</text>
</svg>
